<?xml version="1.0" encoding="utf-8"?>
<!-- Generator: Adobe Illustrator 25.0.1, SVG Export Plug-In . SVG Version: 6.00 Build 0)  -->
<svg version="1.1" id="Calque_1" xmlns="http://www.w3.org/2000/svg" xmlns:xlink="http://www.w3.org/1999/xlink" x="0px" y="0px"
	 viewBox="0 0 86.9 22.4" style="enable-background:new 0 0 86.9 22.4;" xml:space="preserve">
<style type="text/css">
	.st0{fill:#00B2B0;}
	.st1{fill:#536270;}
</style>
<path class="st0" d="M16.9,4.1c-0.7,0-1.4,0.1-2,0.3C13.4,2.3,11,1,8.3,1C3.7,1,0,4.8,0,9.4c0,4.4,3.4,8.1,7.7,8.4v0h9.1v0
	c0,0,0.1,0,0.1,0c0.1,0,0.2,0,0.3,0l3.2,2.7v-3.6c2-1.2,3.4-3.4,3.4-5.9C23.8,7.2,20.7,4.1,16.9,4.1z M15.2,6.3C16.2,6.3,17,7,17,8
	c0,0.9-0.8,1.7-1.7,1.7c-0.4,0-0.7-0.1-1-0.3c0.1-0.2,0.1-0.4,0.1-0.7c0-0.6-0.2-1.1-0.6-1.6C14.1,6.6,14.6,6.3,15.2,6.3z
	 M15.2,13.9v0.8c0,0-1.7,0.6-3.5,0.6c-1.7,0-3.4-0.6-3.4-0.6v-0.8c0-0.1,0-0.2,0-0.3c0.2-1.2,1.2-2.2,2.5-2.2c0,0,0.1,0,0.1,0h1.6
	c0,0,0.1,0,0.1,0c1.2,0.1,2.2,0.9,2.4,2C15.2,13.5,15.2,13.7,15.2,13.9z M11.7,10.7c-1.1,0-1.9-0.8-2.1-1.8c0-0.1,0-0.2,0-0.3
	c0-0.4,0.1-0.8,0.3-1.1c0.4-0.6,1-1,1.8-1c0.8,0,1.5,0.4,1.8,1c0.2,0.3,0.3,0.7,0.3,1c0,0.1,0,0.2,0,0.3
	C13.7,9.9,12.8,10.7,11.7,10.7z M8.3,6.3c0.6,0,1.1,0.3,1.4,0.7C9.3,7.5,9.1,8,9.1,8.6c0,0.2,0,0.5,0.1,0.7C8.9,9.5,8.6,9.6,8.3,9.6
	C7.3,9.6,6.6,8.9,6.6,8C6.6,7,7.3,6.3,8.3,6.3z M5.5,13v-0.8c0-1.1,0.9-2.1,2.1-2.1h1.3c0.3,0,0.5,0.1,0.8,0.1
	c0.2,0.2,0.4,0.4,0.7,0.6C9,11.1,8,12.2,7.8,13.5C6.6,13.4,5.5,13,5.5,13z M18,12.8c0,0-1.1,0.4-2.4,0.5c-0.2-1.2-1.3-2.2-2.5-2.4
	c0.2-0.1,0.5-0.3,0.6-0.6c0.3-0.1,0.5-0.2,0.8-0.2h1.3c1.2,0,2.1,0.9,2.1,2.1V12.8z"/>
<g>
	<path class="st1" d="M54.8,5.5c-0.9-0.6-2.1-0.7-3.2-0.7h-3.5v12.4h1.2v-5h2.2c1.1,0,2.3-0.1,3.2-0.7c1-0.7,1.5-1.8,1.5-3
		S55.8,6.2,54.8,5.5z M53.7,10.7c-0.7,0.3-1.4,0.3-2.1,0.3h-2.2V5.9h2.2c0.8,0,1.4,0,2.1,0.3c0.9,0.4,1.4,1.2,1.4,2.3
		C55.1,9.5,54.6,10.3,53.7,10.7z"/>
	<polygon class="st1" points="32.9,15.3 28.3,4.8 26.4,4.8 26.4,17.2 27.7,17.2 27.7,6.1 27.7,6.1 32.3,17.2 33.4,17.2 38,6.1 
		38.1,6.1 38.1,17.2 39.3,17.2 39.3,4.8 37.4,4.8 	"/>
	<polygon class="st1" points="43.7,15.3 40.7,8 39.5,8 43.1,16.9 41.5,20.4 42.7,20.4 48,8 46.8,8 	"/>
	<rect x="85.4" y="4.8" class="st1" width="1.2" height="12.4"/>
	<path class="st1" d="M83.5,9.6L83.5,9.6c-0.8-1.2-2.2-1.8-3.6-1.8c-2.7,0-4.9,2-4.9,4.8c0,2.8,2.2,4.8,4.9,4.8
		c1.4,0,2.8-0.6,3.6-1.8h0v1.6h1.2V8h-1.2V9.6z M79.9,16.4c-2.2,0-3.8-1.6-3.8-3.7c0-2.2,1.6-3.8,3.8-3.8c2.1,0,3.7,1.7,3.7,3.8
		S81.9,16.4,79.9,16.4z"/>
	<path class="st1" d="M61,7.8c-2.7,0-4.8,2.2-4.8,4.9c0,2.6,2.2,4.8,4.8,4.8c2.6,0,4.8-2.2,4.8-4.8C65.8,10,63.6,7.8,61,7.8z
		 M61,16.4c-2,0-3.6-1.7-3.6-3.7c0-2,1.5-3.8,3.6-3.8c2,0,3.6,1.7,3.6,3.7C64.6,14.6,63.1,16.4,61,16.4z"/>
	<path class="st1" d="M67.4,9.3V8h-1.2v9.2h1.2v-5.4c0-1.6,1-2.8,2.6-2.8V7.9C69.2,7.9,67.9,8.1,67.4,9.3z"/>
	<polygon class="st1" points="75.5,7.9 73.3,7.9 73.3,4.8 72.1,4.8 72.1,7.9 70.2,7.9 70.2,9 72.1,9 72.1,17.2 73.3,17.2 73.3,9 
		75.5,9 	"/>
</g>
</svg>
