<?xml version="1.0" ?><!-- Uploaded to: SVGRepo, www.svgrepo.com, Transformed by: SVGRepo Tools -->
<svg width="800px" height="800px" viewBox="0 0 512 512" id="Layer_1" version="1.1" xml:space="preserve" xmlns="http://www.w3.org/2000/svg" xmlns:xlink="http://www.w3.org/1999/xlink"><style type="text/css">
	.st0{fill:#333333;}
</style><g><path class="st0" d="M86.5,152c-15.7,0-28.5,12.8-28.5,28.5s12.8,28.5,28.5,28.5c15.7,0,28.5-12.8,28.5-28.5S102.2,152,86.5,152z    M86.5,194.9c-8,0-14.5-6.5-14.5-14.5S78.5,166,86.5,166c8,0,14.5,6.5,14.5,14.5S94.5,194.9,86.5,194.9z"/><path class="st0" d="M240.5,152c-15.7,0-28.5,12.8-28.5,28.5s12.8,28.5,28.5,28.5c15.7,0,28.5-12.8,28.5-28.5S256.2,152,240.5,152z    M240.5,194.9c-8,0-14.5-6.5-14.5-14.5s6.5-14.5,14.5-14.5c8,0,14.5,6.5,14.5,14.5S248.5,194.9,240.5,194.9z"/><path class="st0" d="M394.5,79.6c-15.7,0-28.5,12.8-28.5,28.5c0,15.7,12.8,28.5,28.5,28.5c15.7,0,28.5-12.8,28.5-28.5   C423,92.3,410.2,79.6,394.5,79.6z M394.5,122.5c-8,0-14.5-6.5-14.5-14.5c0-8,6.5-14.5,14.5-14.5c8,0,14.5,6.5,14.5,14.5   C409,116,402.5,122.5,394.5,122.5z"/><path class="st0" d="M483.3,164.5l-36.1-32.2c3.5-7.6,5.3-15.9,5.3-24.3c0-32-26-58-58-58s-58,26-58,58c0,10.5,2.8,20.3,7.7,28.7   l-47,31.5c-5.6-26.1-28.9-45.8-56.7-45.8c-29.6,0-54.1,22.3-57.6,51h-38.9c-3.5-28.7-28-51-57.6-51c-32,0-58,26-58,58s26,58,58,58   c29.6,0,54.1-22.3,57.6-51h38.9c3.5,28.7,28,51,57.6,51c30.7,0,55.9-24,57.9-54.2l54.2-36.3c10.6,11.1,25.5,18,42,18   c8.4,0,16.8-1.8,24.3-5.3l32.2,36.1c4.2,4.7,10.2,7.5,16.4,7.7c0.2,0,0.4,0,0.7,0c6,0,11.9-2.4,16.2-6.7c4.4-4.4,6.9-10.6,6.7-16.8   C490.8,174.7,488,168.7,483.3,164.5z M86.5,224.5c-24.3,0-44-19.7-44-44s19.7-44,44-44s44,19.7,44,44S110.8,224.5,86.5,224.5z    M240.5,224.5c-24.3,0-44-19.7-44-44s19.7-44,44-44c24.3,0,44,19.7,44,44c0,0,0,0,0,0v0C284.5,204.7,264.8,224.5,240.5,224.5z    M474.4,187.9C474.4,187.9,474.4,187.9,474.4,187.9c-1.8,1.8-4.1,2.7-6.5,2.6c-2.5-0.1-4.7-1.1-6.4-3l-35.8-40.2   c-1.4-1.5-3.3-2.3-5.2-2.3c-1.2,0-2.5,0.3-3.6,1c-6.7,4-14.5,6.1-22.4,6.1c-24.3,0-44-19.7-44-44s19.7-44,44-44s44,19.7,44,44   c0,7.9-2.1,15.6-6.1,22.4c-1.7,2.9-1.1,6.6,1.4,8.8L474,175c1.8,1.6,2.9,3.9,3,6.4C477.1,183.8,476.1,186.1,474.4,187.9z"/><path class="st0" d="M52,462h69h85h69h85h69h24c3.9,0,7-3.1,7-7s-3.1-7-7-7h-17V203c0-3.9-3.1-7-7-7h-69c-3.9,0-7,3.1-7,7v245   h-23.4v-75c0-3.9-3.1-7-7-7s-7,3.1-7,7v75H282V280c0-3.9-3.1-7-7-7h-69c-3.9,0-7,3.1-7,7v168h-28.5v-75c0-3.9-3.1-7-7-7s-7,3.1-7,7   v75H128V280c0-3.9-3.1-7-7-7H52c-3.9,0-7,3.1-7,7v168H28c-3.9,0-7,3.1-7,7s3.1,7,7,7H52z M367,210h55v238h-55V210z M213,287h55v161   h-55V287z M59,287h55v161H59V287z"/></g></svg>